<svg xmlns="http://www.w3.org/2000/svg" viewBox="0 0 64 64"><g id="Layer_20" data-name="Layer 20"><path d="M49.93,17.33H41.87V12a1.5,1.5,0,0,0-1.5-1.5H23.63a1.5,1.5,0,0,0-1.5,1.5v5.33H14.07a1.5,1.5,0,0,0,0,3H16V48a5.49,5.49,0,0,0,5.49,5.48h21.1A5.49,5.49,0,0,0,48,48V20.33h1.89A1.5,1.5,0,0,0,49.93,17.33ZM25.13,13.5H38.87v3.83H25.13ZM45,48a2.49,2.49,0,0,1-2.49,2.48H21.45A2.49,2.49,0,0,1,19,48V20.33H45Z"/><path d="M28,25.87a1.5,1.5,0,0,0-1.5,1.5V43.46a1.5,1.5,0,1,0,3,0V27.37A1.5,1.5,0,0,0,28,25.87Z"/><path d="M36,25.87a1.5,1.5,0,0,0-1.5,1.5V43.46a1.5,1.5,0,1,0,3,0V27.37A1.5,1.5,0,0,0,36,25.87Z"/></g></svg>